<svg width="512" height="512" viewBox="0 0 512 512" xmlns="http://www.w3.org/2000/svg">
  <defs>
    <linearGradient id="bg" x1="88" y1="64" x2="424" y2="448" gradientUnits="userSpaceOnUse">
      <stop stop-color="#4A9FE0"/>
      <stop offset="0.58" stop-color="#2F70C8"/>
      <stop offset="1" stop-color="#8B4FCC"/>
    </linearGradient>
    <linearGradient id="bar" x1="160" y1="128" x2="352" y2="384" gradientUnits="userSpaceOnUse">
      <stop stop-color="#FFFFFF"/>
      <stop offset="1" stop-color="#DCEFFF"/>
    </linearGradient>
    <filter id="shadow" x="-20%" y="-20%" width="140%" height="140%">
      <feDropShadow dx="0" dy="18" stdDeviation="18" flood-color="#00101F" flood-opacity="0.28"/>
    </filter>
  </defs>
  <rect width="512" height="512" rx="112" fill="#07111F"/>
  <path d="M256 46C372 46 466 140 466 256S372 466 256 466 46 372 46 256 140 46 256 46Zm0 58C172 104 104 172 104 256s68 152 152 152 152-68 152-152-68-152-152-152Z" fill="url(#bg)"/>
  <g filter="url(#shadow)">
    <rect x="152" y="144" width="68" height="224" rx="30" fill="url(#bar)"/>
    <rect x="292" y="144" width="68" height="224" rx="30" fill="url(#bar)"/>
    <rect x="196" y="222" width="120" height="68" rx="30" fill="#4A9FE0"/>
    <circle cx="356" cy="158" r="24" fill="#E87820"/>
  </g>
</svg>