<svg width="512" height="512" viewBox="0 0 512 512" fill="none" xmlns="http://www.w3.org/2000/svg">
  <defs>
    <linearGradient id="g1" x1="64" y1="64" x2="448" y2="448" gradientUnits="userSpaceOnUse">
      <stop stop-color="#4A9FE0"/>
      <stop offset="1" stop-color="#2B7CC7"/>
    </linearGradient>
    <linearGradient id="g2" x1="144" y1="120" x2="384" y2="392" gradientUnits="userSpaceOnUse">
      <stop stop-color="#7BBFED" stop-opacity="0.9"/>
      <stop offset="1" stop-color="#2A9B8A" stop-opacity="0.95"/>
    </linearGradient>
  </defs>
  <rect x="32" y="32" width="448" height="448" rx="112" fill="#07090C"/>
  <rect x="48" y="48" width="416" height="416" rx="96" fill="url(#g1)" fill-opacity="0.14" stroke="url(#g1)" stroke-width="4"/>
  <path d="M118 260C118 208.085 160.085 166 212 166H300C351.915 166 394 208.085 394 260V300C394 351.915 351.915 394 300 394H212C160.085 394 118 351.915 118 300V260Z" fill="url(#g2)"/>
  <path d="M170 258C170 243.641 181.641 232 196 232H316C330.359 232 342 243.641 342 258V302C342 316.359 330.359 328 316 328H196C181.641 328 170 316.359 170 302V258Z" fill="#0D1117" fill-opacity="0.72"/>
  <path d="M206 280L238 312L306 236" stroke="#7BBFED" stroke-width="22" stroke-linecap="round" stroke-linejoin="round"/>
</svg>
